<svg width="19" height="13" viewBox="0 0 19 13" fill="none" xmlns="http://www.w3.org/2000/svg">
<path d="M17.5 10C17.8852 10.0002 18.2556 10.1486 18.5344 10.4144C18.8132 10.6802 18.979 11.0431 18.9975 11.4279C19.016 11.8127 18.8858 12.1898 18.6338 12.4812C18.3818 12.7726 18.0274 12.9558 17.644 12.993L17.5 13H1.5C1.11478 12.9998 0.744405 12.8514 0.465613 12.5856C0.186821 12.3198 0.020988 11.9569 0.00247574 11.5721C-0.0160365 11.1873 0.114192 10.8102 0.366175 10.5188C0.618159 10.2274 0.972581 10.0442 1.356 10.007L1.5 10H17.5ZM17.5 5C17.8978 5 18.2794 5.15804 18.5607 5.43934C18.842 5.72064 19 6.10218 19 6.5C19 6.89782 18.842 7.27936 18.5607 7.56066C18.2794 7.84196 17.8978 8 17.5 8H1.5C1.10218 8 0.720644 7.84196 0.43934 7.56066C0.158035 7.27936 0 6.89782 0 6.5C0 6.10218 0.158035 5.72064 0.43934 5.43934C0.720644 5.15804 1.10218 5 1.5 5H17.5ZM17.5 0C17.8978 0 18.2794 0.158035 18.5607 0.43934C18.842 0.720644 19 1.10218 19 1.5C19 1.89782 18.842 2.27936 18.5607 2.56066C18.2794 2.84196 17.8978 3 17.5 3H1.5C1.10218 3 0.720644 2.84196 0.43934 2.56066C0.158035 2.27936 0 1.89782 0 1.5C0 1.10218 0.158035 0.720644 0.43934 0.43934C0.720644 0.158035 1.10218 0 1.5 0H17.5Z" fill="black"/>
</svg>
