<svg width="10" height="9" viewBox="0 0 10 9" fill="none" xmlns="http://www.w3.org/2000/svg">
<path fill-rule="evenodd" clip-rule="evenodd" d="M4.841 7.79871C4.98145 7.65808 5.06034 7.46746 5.06034 7.26871C5.06034 7.06996 4.98145 6.87933 4.841 6.73871L2.871 4.76871L9.25 4.76871C9.44891 4.76871 9.63968 4.68969 9.78033 4.54904C9.92098 4.40839 10 4.21762 10 4.01871C10 3.8198 9.92098 3.62903 9.78033 3.48838C9.63968 3.34773 9.44891 3.26871 9.25 3.26871L2.871 3.26871L4.841 1.29871C4.91469 1.23005 4.97379 1.14725 5.01478 1.05525C5.05577 0.963247 5.07782 0.863934 5.07959 0.763231C5.08137 0.662528 5.06284 0.562499 5.02512 0.46911C4.9874 0.375722 4.93126 0.290889 4.86004 0.21967C4.78882 0.148451 4.70399 0.0923064 4.6106 0.0545854C4.51721 0.0168644 4.41718 -0.00166026 4.31648 0.000116532C4.21578 0.00189332 4.11646 0.0239351 4.02446 0.0649271C3.93246 0.105919 3.84966 0.165021 3.781 0.238708L0.531 3.48871L1.75663e-07 4.01871L0.53 4.54871L3.78 7.79871C3.84965 7.8684 3.93235 7.92369 4.02338 7.96141C4.1144 7.99913 4.21197 8.01855 4.3105 8.01855C4.40903 8.01855 4.5066 7.99913 4.59762 7.96141C4.68865 7.92369 4.77135 7.8684 4.841 7.79871Z" fill="#CCCCCC"/>
</svg>
