<svg width="26" height="24" viewBox="0 0 26 24" fill="none" xmlns="http://www.w3.org/2000/svg">
<path d="M25.9998 14.4571V11.5626C25.9998 11.3622 25.9482 11.1648 25.8495 10.9901C25.7508 10.8155 25.6095 10.6712 25.4379 10.571C25.2663 10.4708 25.0734 10.4176 24.8745 10.4161C24.6771 10.4161 24.4827 10.4677 24.3111 10.568L14.8557 16.0972C14.2194 16.4677 13.902 16.6545 13.5542 16.6545C13.2065 16.6545 12.8875 16.4692 12.2497 16.0972L5.853 12.3629C5.53104 12.1746 5.37006 12.0805 5.24097 12.0653C5.09822 12.0456 4.95394 12.0759 4.82941 12.1488C4.70488 12.2217 4.60768 12.3356 4.55453 12.4708C4.50593 12.5923 4.50593 12.7806 4.50745 13.1587C4.50897 13.4366 4.50745 13.5748 4.53478 13.7024C4.59249 13.9879 4.73981 14.2445 4.95394 14.4358C5.04962 14.5209 5.16808 14.5892 5.40499 14.7289L12.2467 18.7456C12.8845 19.1192 13.2049 19.3075 13.5542 19.3075C13.9035 19.3075 14.2225 19.1207 14.8603 18.7472L23.2449 13.8284C23.4636 13.7008 23.5715 13.6386 23.6535 13.6857C23.734 13.7342 23.734 13.8618 23.734 14.1169V15.4305C23.734 15.8041 23.734 15.9924 23.6474 16.1443C23.5608 16.2976 23.4014 16.3903 23.0824 16.5786L16.1679 20.6348C14.8922 21.3834 14.2528 21.757 13.5542 21.757C12.8556 21.757 12.2148 21.3834 10.9406 20.6317L4.47252 16.8322L4.42544 16.8049C3.75874 16.4085 3.20594 15.8436 2.82019 15.1648C2.43445 14.486 2.22943 13.716 2.22639 12.9309V11.6689C2.22639 11.2361 2.33877 10.8094 2.55139 10.4343C2.764 10.0592 3.07077 9.74639 3.43981 9.52923C3.76633 9.33789 4.13689 9.23614 4.51352 9.23614C4.89016 9.23614 5.26071 9.33637 5.58723 9.52772L10.9451 12.6727C12.2178 13.4199 12.8541 13.7935 13.5527 13.795C14.2513 13.795 14.8892 13.4214 16.1633 12.6758L24.2685 7.93622C24.4493 7.83144 24.5981 7.67957 24.7014 7.49734C24.8046 7.31511 24.8593 7.10706 24.8593 6.89598C24.8593 6.68489 24.8046 6.47836 24.7014 6.29461C24.5981 6.11086 24.4477 5.96052 24.2685 5.85573L16.1633 1.11465C14.8907 0.372058 14.2543 0 13.5573 0C12.8587 0 12.2208 0.373576 10.9497 1.11921L3.9835 5.19818C2.78374 5.88611 1.78445 6.88383 1.08434 8.09112C0.382708 9.29689 0.0106308 10.6697 0 12.0699V12.3295C0.0106308 13.7282 0.382708 15.098 1.07978 16.3037C1.77686 17.5095 2.77463 18.5057 3.97287 19.1951L8.33149 21.7525C10.8814 23.2498 12.157 24 13.5573 24C14.9575 24 16.2332 23.2544 18.7846 21.757L23.3892 19.0569C24.6649 18.3083 25.2997 17.9347 25.6505 17.3197C25.9998 16.7031 26.0014 15.9544 25.9998 14.4586V14.4571ZM15.9446 9.44875C15.5908 9.44875 15.2217 9.37586 14.8603 9.31207C14.4989 9.24677 14.1086 9.19059 14.1086 9.19059C14.1086 9.19059 13.7183 9.24677 13.3553 9.31207C12.9938 9.37737 12.6248 9.44875 12.2725 9.44875C11.4888 9.44875 10.8449 9.04024 10.8449 8.54518C10.8449 8.33561 10.9634 8.14882 11.138 8.01215C11.3127 7.87699 11.5192 7.7874 11.7242 7.7221C12.1343 7.58998 12.5291 7.49582 12.5914 7.45482C12.6992 7.38649 12.8146 7.22399 12.9999 7.02658C13.1867 6.83068 13.5664 6.60744 14.1101 6.60744C14.6538 6.60744 15.0441 6.82916 15.2324 7.02809C15.4207 7.22551 15.53 7.39408 15.6288 7.45482C15.6865 7.49127 16.0874 7.60061 16.4959 7.73728C16.6994 7.80562 16.909 7.88762 17.0821 8.01974C17.2568 8.15186 17.3752 8.33865 17.3752 8.54366C17.3752 9.03872 16.7298 9.44723 15.9477 9.44723L15.9446 9.44875ZM18.6357 5.94685C18.8772 6.16097 19.0048 6.43888 19.0048 6.73804C19.0048 7.03721 18.8772 7.31359 18.6357 7.52923C18.3943 7.74336 18.0146 7.89977 17.5772 7.89977C17.1398 7.89977 16.7602 7.74336 16.5187 7.52923C16.2772 7.31511 16.1497 7.03721 16.1497 6.73804C16.1497 6.43888 16.2772 6.16249 16.5187 5.94685C16.7602 5.73273 17.1398 5.57631 17.5772 5.57631C18.0146 5.57631 18.3943 5.73273 18.6357 5.94685ZM11.6225 4.13971C11.8639 3.92559 12.2436 3.76917 12.681 3.76917C13.1184 3.76917 13.498 3.92559 13.7395 4.13971C13.981 4.35384 14.1086 4.63174 14.1086 4.9309C14.1086 4.63174 14.2361 4.35535 14.4776 4.13971C14.7191 3.92559 15.0987 3.76917 15.5361 3.76917C15.9735 3.76917 16.3532 3.92559 16.5946 4.13971C16.8361 4.35384 16.9637 4.63174 16.9637 4.9309C16.9637 5.23007 16.8361 5.50645 16.5946 5.7221C16.3532 5.93622 15.9735 6.09264 15.5361 6.09264C15.0987 6.09264 14.7191 5.93622 14.4776 5.7221C14.2361 5.50797 14.1086 5.23007 14.1086 4.9309C14.1086 5.23007 13.981 5.50645 13.7395 5.7221C13.498 5.93622 13.1184 6.09264 12.681 6.09264C12.2436 6.09264 11.8639 5.93622 11.6225 5.7221C11.381 5.50797 11.2534 5.23007 11.2534 4.9309C11.2534 4.63174 11.381 4.35535 11.6225 4.13971ZM9.58136 5.94685C9.82283 5.73273 10.2025 5.57631 10.6399 5.57631C11.0773 5.57631 11.4569 5.73273 11.6984 5.94685C11.9399 6.16097 12.0674 6.43888 12.0674 6.73804C12.0674 7.03721 11.9399 7.31359 11.6984 7.52923C11.4569 7.74336 11.0773 7.89977 10.6399 7.89977C10.2025 7.89977 9.82283 7.74336 9.58136 7.52923C9.33989 7.31511 9.21233 7.03721 9.21233 6.73804C9.21233 6.43888 9.33989 6.16249 9.58136 5.94685Z" fill="black"/>
</svg>
