<svg width="10" height="9" viewBox="0 0 10 9" fill="none" xmlns="http://www.w3.org/2000/svg">
<path fill-rule="evenodd" clip-rule="evenodd" d="M5.159 7.79871C5.01855 7.65808 4.93966 7.46746 4.93966 7.26871C4.93966 7.06996 5.01855 6.87933 5.159 6.73871L7.129 4.76871L0.75 4.76871C0.551087 4.76871 0.360323 4.68969 0.21967 4.54904C0.0790174 4.40839 -1.84358e-07 4.21762 -1.75663e-07 4.01871C-1.66969e-07 3.8198 0.0790175 3.62903 0.21967 3.48838C0.360323 3.34773 0.551087 3.26871 0.75 3.26871L7.129 3.26871L5.159 1.29871C5.08531 1.23005 5.02621 1.14725 4.98522 1.05525C4.94423 0.963247 4.92218 0.863934 4.92041 0.763231C4.91863 0.662528 4.93716 0.562499 4.97488 0.46911C5.0126 0.375722 5.06874 0.290889 5.13996 0.21967C5.21118 0.148451 5.29601 0.0923064 5.3894 0.0545854C5.48279 0.0168644 5.58282 -0.00166026 5.68352 0.000116532C5.78422 0.00189332 5.88354 0.0239351 5.97554 0.0649271C6.06754 0.105919 6.15034 0.165021 6.219 0.238708L9.469 3.48871L10 4.01871L9.47 4.54871L6.22 7.79871C6.15035 7.8684 6.06765 7.92369 5.97662 7.96141C5.8856 7.99913 5.78803 8.01855 5.6895 8.01855C5.59097 8.01855 5.4934 7.99913 5.40238 7.96141C5.31135 7.92369 5.22865 7.8684 5.159 7.79871Z" fill="#0056D6"/>
</svg>
